<svg width="40" height="40" viewBox="0 0 40 40" fill="none" xmlns="http://www.w3.org/2000/svg">
<path d="M17.1116 20.1584L16.7516 19.5344L18.0956 18.7664C19.1996 18.1584 19.7516 17.1904 19.7516 15.8624C19.7516 13.3824 17.8636 12.1424 14.0876 12.1424H11.8796V28.2224H11.1596V11.4224H14.0876C16.1996 11.4224 17.7916 11.8144 18.8636 12.5984C19.9356 13.3664 20.4716 14.4544 20.4716 15.8624C20.4716 17.4624 19.7996 18.6384 18.4556 19.3904L17.1116 20.1584ZM23.1444 27.5024H31.9764L26.8884 13.5104L21.5364 28.2224H20.7684L26.8884 11.3984L33.0084 28.2224H23.1444V27.5024Z" fill="#FFFFEE"/>
<circle cx="20" cy="20" r="19.5" stroke="#FFFFEE"/>
</svg>
