<svg width="50" height="50" viewBox="0 0 50 50" fill="none" xmlns="http://www.w3.org/2000/svg">
<rect width="50" height="50" rx="25" fill="#282C2D"/>
<path d="M22.1116 25.1584L21.7516 24.5344L23.0956 23.7664C24.1996 23.1584 24.7516 22.1904 24.7516 20.8624C24.7516 18.3824 22.8636 17.1424 19.0876 17.1424H16.8796V33.2224H16.1596V16.4224H19.0876C21.1996 16.4224 22.7916 16.8144 23.8636 17.5984C24.9356 18.3664 25.4716 19.4544 25.4716 20.8624C25.4716 22.4624 24.7996 23.6384 23.4556 24.3904L22.1116 25.1584ZM28.1444 32.5024H36.9764L31.8884 18.5104L26.5364 33.2224H25.7684L31.8884 16.3984L38.0084 33.2224H28.1444V32.5024Z" fill="#FFFFEE"/>
<circle cx="25" cy="25" r="19.5" stroke="#FFFFEE"/>
</svg>
